PathFileType	4	(X/Y/Z)	D:\Long Term Storage\D'Arcy Smith\Coord18.trc
DataRate	CameraRate	NumFrames	NumMarkers	Units	OrigDataRate	OrigDataStartFrame	OrigNumFrames
120.00	120.00	      62	4	mm	120.00	1796	      4787
Frame#	Time	M1			M2			M3			M4			
		X1	Y1	Z1	X2	Y2	Z2	X3	Y3	Z3	X4	Y4	Z4	

1796	14.958	610.14502	367.35397	62.86673	983.76837	427.29666	567.55981							
1797	14.967	616.73328	358.08618	77.27502	981.38403	424.41074	565.45264							
1798	14.975	623.39301	348.85358	92.49839	979.88074	421.65680	561.43597							
1799	14.983	629.53845	339.48679	110.77242	977.67035	417.89059	557.29950							
1800	14.992	635.44867	330.85217	130.72299	975.29358	413.47418	552.77203							
1801	15.000	640.46838	323.08746	151.33064	972.91205	408.53290	547.14703							
1802	15.008	644.72266	316.50638	174.33481	970.42139	403.31866	541.50549							
1803	15.017	649.46313	311.14850	197.23639	967.96973	397.49301	534.81488							
1804	15.025	652.94086	306.60574	220.98787	965.38202	391.38467	526.57654							
1805	15.033	655.98920	303.52429	245.23494	962.76495	384.92331	518.31366							
1806	15.042	658.58649	301.64798	269.91171	960.29822	378.29926	509.23300							
1807	15.050	660.73926	301.75552	294.28506	957.61078	371.40314	498.98575							
1808	15.058	661.72473	302.04501	318.67798	955.41846	364.98752	488.28979							
1809	15.067	663.10132	305.16983	343.31808	953.12146	358.21729	476.56442							
1810	15.075	663.36218	309.62939	368.05273	950.71356	351.41327	463.85779							
1811	15.083	662.87238	315.07037	391.98804	948.75763	344.37146	450.59454							
1812	15.092	661.93286	321.94788	415.28424	946.66040	338.01511	437.22565							
1813	15.100	660.29333	330.20917	438.05237	944.95483	332.10614	422.45599							
1814	15.108	658.60278	340.19827	459.63080	943.16272	326.28235	406.63889							
1815	15.117	656.04114	350.88199	482.11661	941.52399	321.10968	391.05566							
1816	15.125	653.34521	362.60272	501.32748	940.09564	316.46594	374.53204							
1817	15.133	650.21436	375.61639	519.47284	939.05145	312.13632	357.43610							
1818	15.142	647.02295	389.15344	536.32654	938.26721	308.71597	340.16391							
1819	15.150	643.89154	403.90985	551.74017	937.56580	305.75922	322.16214							
1820	15.158	640.58612	418.97525	565.58417	938.04803	303.23535	304.24506							
1821	15.167	637.49097	434.66299	577.99451	936.93707	302.09128	285.29358							
1822	15.175	633.36902	450.50717	589.76147	937.77167	300.66455	266.62421							
1823	15.183	630.26410	466.38998	599.59937	936.94940	301.43106	247.89557							
1824	15.192	627.16467	482.38644	608.15240	936.74414	302.43695	229.38411							
1825	15.200	624.72174	498.34500	615.96167	936.74286	303.54959	211.26421							
1826	15.208	622.47070	512.81744	621.85272	937.35608	305.72430	193.29170							
1827	15.217	620.53125	526.67548	626.76056	938.17950	308.57648	175.43153							
1828	15.225	618.81213	539.56458	630.85321	939.20282	312.07687	158.53058							
1829	15.233	617.97241	551.22308	633.93750	939.71930	316.62231	140.73938							
1830	15.242	617.63794	561.63678	636.52106	941.72919	320.89450	124.91833							
1831	15.250	618.03003	570.72150	638.57520	943.04462	326.00653	108.98241							
1832	15.258	618.79248	578.23486	639.65997	944.92108	332.57034	90.76255							
1833	15.267	620.22131	584.05231	640.41650	946.43640	338.52594	76.65015							
1834	15.275	621.91028	588.73444	640.61884	947.90393	344.68130	63.31506							
1835	15.283	624.28412	592.26031	640.59943	949.38037	350.92422	50.87142							
1836	15.292	626.94971	594.11450	640.25818	950.46466	357.43881	38.68156							
1837	15.300	629.87103	594.95935	639.10223	951.85413	363.45242	28.29582							
1838	15.308	633.35803	595.08130	638.05652	953.10724	369.71146	19.23588							
1839	15.317	636.49652	593.92419	636.97223	954.72638	375.71625	9.58182							
1840	15.325	640.05200	591.72083	635.23383	955.95074	381.07086	1.87015							
1841	15.333	643.70227	588.82727	633.08752	957.67157	386.91107	-5.41566							
1842	15.342	647.30212	584.89221	630.44440	958.89996	391.80588	-11.47071							
1843	15.350	651.17560	580.68628	628.09039	960.18500	396.14206	-16.53777							
1844	15.358	654.72534	575.82837	625.30780	961.33014	399.90482	-20.83281							
1845	15.367	658.30933	570.51898	622.24109	962.43213	403.05658	-24.27183							
1846	15.375	661.55847	564.54938	618.67181	963.40051	405.33279	-26.72590							
1847	15.383	664.71899	558.12701	614.86591	964.21265	405.95001	-27.67657							
1848	15.392	667.34064	551.30951	610.55981	964.93817	406.79727	-28.58405							
1849	15.400	669.82001	543.73828	605.76190	965.56055	406.92984	-28.80128							
1850	15.408	671.90448	535.27496	599.89697	965.92944	406.23224	-26.92811							
1851	15.417	673.72925	526.18750	593.86963	966.32227	405.43524	-27.55117							
1852	15.425	675.55640	517.04608	587.63245	966.81885	403.67276	-25.71945							
1853	15.433	676.89734	507.05167	580.82605	967.07214	400.64783	-22.95469							
1854	15.442	677.92865	496.49924	572.92590	967.25275	397.03928	-19.39153							
1855	15.450	679.08917	485.62643	564.87665	967.38855	392.74847	-15.06085							
1856	15.458	679.87103	474.09332	555.16840	967.54285	387.79706	-9.79680							
1857	15.467	680.63916	462.45715	544.38513	967.51941	382.35901	-3.71014							
